<svg width="280" height="24" viewBox="0 0 280 24" fill="none" xmlns="http://www.w3.org/2000/svg">
<path opacity="0.2" d="M12 2.25C10.0109 2.25 8.10322 3.04018 6.6967 4.4467C5.29018 5.85322 4.5 7.76088 4.5 9.75C4.5 16.5 12 21.75 12 21.75C12 21.75 19.5 16.5 19.5 9.75C19.5 7.76088 18.7098 5.85322 17.3033 4.4467C15.8968 3.04018 13.9891 2.25 12 2.25ZM12 12.75C11.4067 12.75 10.8266 12.5741 10.3333 12.2444C9.83994 11.9148 9.45542 11.4462 9.22836 10.8981C9.0013 10.3499 8.94189 9.74667 9.05764 9.16473C9.1734 8.58279 9.45912 8.04824 9.87868 7.62868C10.2982 7.20912 10.8328 6.9234 11.4147 6.80764C11.9967 6.69189 12.5999 6.7513 13.1481 6.97836C13.6962 7.20542 14.1648 7.58994 14.4944 8.08329C14.8241 8.57664 15 9.15666 15 9.75C15 10.5456 14.6839 11.3087 14.1213 11.8713C13.5587 12.4339 12.7956 12.75 12 12.75Z" fill="#EF5F4C"/>
<path d="M12 6C11.2583 6 10.5333 6.21993 9.91661 6.63199C9.29993 7.04404 8.81928 7.62971 8.53545 8.31494C8.25162 9.00016 8.17736 9.75416 8.32205 10.4816C8.46675 11.209 8.8239 11.8772 9.34835 12.4017C9.8728 12.9261 10.541 13.2833 11.2684 13.4279C11.9958 13.5726 12.7498 13.4984 13.4351 13.2145C14.1203 12.9307 14.706 12.4501 15.118 11.8334C15.5301 11.2167 15.75 10.4917 15.75 9.75C15.75 8.75544 15.3549 7.80161 14.6517 7.09835C13.9484 6.39509 12.9946 6 12 6ZM12 12C11.555 12 11.12 11.868 10.75 11.6208C10.38 11.3736 10.0916 11.0222 9.92127 10.611C9.75097 10.1999 9.70642 9.7475 9.79323 9.31105C9.88005 8.87459 10.0943 8.47368 10.409 8.15901C10.7237 7.84434 11.1246 7.63005 11.561 7.54323C11.9975 7.45642 12.4499 7.50097 12.861 7.67127C13.2722 7.84157 13.6236 8.12996 13.8708 8.49997C14.118 8.86998 14.25 9.30499 14.25 9.75C14.25 10.3467 14.0129 10.919 13.591 11.341C13.169 11.7629 12.5967 12 12 12ZM12 1.5C9.81273 1.50248 7.71575 2.37247 6.16911 3.91911C4.62247 5.46575 3.75248 7.56273 3.75 9.75C3.75 12.6938 5.11031 15.8138 7.6875 18.7734C8.84552 20.1108 10.1489 21.3151 11.5734 22.3641C11.6995 22.4524 11.8498 22.4998 12.0037 22.4998C12.1577 22.4998 12.308 22.4524 12.4341 22.3641C13.856 21.3147 15.1568 20.1104 16.3125 18.7734C18.8859 15.8138 20.25 12.6938 20.25 9.75C20.2475 7.56273 19.3775 5.46575 17.8309 3.91911C16.2843 2.37247 14.1873 1.50248 12 1.5ZM12 20.8125C10.4503 19.5938 5.25 15.1172 5.25 9.75C5.25 7.95979 5.96116 6.2429 7.22703 4.97703C8.4929 3.71116 10.2098 3 12 3C13.7902 3 15.5071 3.71116 16.773 4.97703C18.0388 6.2429 18.75 7.95979 18.75 9.75C18.75 15.1153 13.5497 19.5938 12 20.8125Z" fill="#EF5F4C"/>
<path d="M36.172 17.098C35.528 17.098 34.9493 16.986 34.436 16.762C33.932 16.5287 33.5353 16.2113 33.246 15.81C32.9567 15.3993 32.8073 14.928 32.798 14.396H34.156C34.2027 14.8533 34.3893 15.2407 34.716 15.558C35.052 15.866 35.5373 16.02 36.172 16.02C36.7787 16.02 37.2547 15.8707 37.6 15.572C37.9547 15.264 38.132 14.872 38.132 14.396C38.132 14.0227 38.0293 13.7193 37.824 13.486C37.6187 13.2527 37.362 13.0753 37.054 12.954C36.746 12.8327 36.3307 12.702 35.808 12.562C35.164 12.394 34.646 12.226 34.254 12.058C33.8713 11.89 33.54 11.6287 33.26 11.274C32.9893 10.91 32.854 10.4247 32.854 9.818C32.854 9.286 32.9893 8.81467 33.26 8.404C33.5307 7.99333 33.9087 7.676 34.394 7.452C34.8887 7.228 35.4533 7.116 36.088 7.116C37.0027 7.116 37.7493 7.34467 38.328 7.802C38.916 8.25933 39.2473 8.866 39.322 9.622H37.922C37.8753 9.24867 37.6793 8.922 37.334 8.642C36.9887 8.35267 36.5313 8.208 35.962 8.208C35.43 8.208 34.996 8.348 34.66 8.628C34.324 8.89867 34.156 9.28133 34.156 9.776C34.156 10.1307 34.254 10.42 34.45 10.644C34.6553 10.868 34.9027 11.0407 35.192 11.162C35.4907 11.274 35.906 11.4047 36.438 11.554C37.082 11.7313 37.6 11.9087 37.992 12.086C38.384 12.254 38.72 12.52 39 12.884C39.28 13.2387 39.42 13.724 39.42 14.34C39.42 14.816 39.294 15.264 39.042 15.684C38.79 16.104 38.4167 16.4447 37.922 16.706C37.4273 16.9673 36.844 17.098 36.172 17.098ZM40.8188 13.136C40.8188 12.352 40.9775 11.666 41.2948 11.078C41.6121 10.4807 42.0461 10.0187 42.5968 9.692C43.1568 9.36533 43.7775 9.202 44.4588 9.202C45.1308 9.202 45.7141 9.34667 46.2088 9.636C46.7035 9.92533 47.0721 10.2893 47.3148 10.728V9.328H48.6028V17H47.3148V15.572C47.0628 16.02 46.6848 16.3933 46.1808 16.692C45.6861 16.9813 45.1075 17.126 44.4448 17.126C43.7635 17.126 43.1475 16.958 42.5968 16.622C42.0461 16.286 41.6121 15.8147 41.2948 15.208C40.9775 14.6013 40.8188 13.9107 40.8188 13.136ZM47.3148 13.15C47.3148 12.5713 47.1981 12.0673 46.9648 11.638C46.7315 11.2087 46.4141 10.882 46.0128 10.658C45.6208 10.4247 45.1868 10.308 44.7108 10.308C44.2348 10.308 43.8008 10.42 43.4088 10.644C43.0168 10.868 42.7041 11.1947 42.4708 11.624C42.2375 12.0533 42.1208 12.5573 42.1208 13.136C42.1208 13.724 42.2375 14.2373 42.4708 14.676C42.7041 15.1053 43.0168 15.4367 43.4088 15.67C43.8008 15.894 44.2348 16.006 44.7108 16.006C45.1868 16.006 45.6208 15.894 46.0128 15.67C46.4141 15.4367 46.7315 15.1053 46.9648 14.676C47.1981 14.2373 47.3148 13.7287 47.3148 13.15ZM42.9048 8.502C42.9701 8.026 43.1241 7.662 43.3668 7.41C43.6188 7.158 43.9315 7.032 44.3048 7.032C44.4821 7.032 44.6315 7.06467 44.7528 7.13C44.8835 7.186 45.0375 7.27 45.2148 7.382C45.3455 7.47533 45.4621 7.55 45.5648 7.606C45.6675 7.65267 45.7795 7.676 45.9008 7.676C46.0595 7.676 46.1948 7.62467 46.3068 7.522C46.4188 7.41933 46.4888 7.27 46.5168 7.074H47.2448C47.1888 7.54067 47.0348 7.9 46.7828 8.152C46.5308 8.404 46.2181 8.53 45.8448 8.53C45.6675 8.53 45.5088 8.502 45.3688 8.446C45.2381 8.38067 45.0888 8.28733 44.9208 8.166C44.7715 8.07267 44.6501 8.00267 44.5568 7.956C44.4728 7.90933 44.3701 7.886 44.2488 7.886C44.0901 7.886 43.9548 7.93733 43.8428 8.04C43.7401 8.14267 43.6748 8.29667 43.6468 8.502H42.9048ZM54.1017 17.126C53.3831 17.126 52.7297 16.9627 52.1417 16.636C51.5631 16.3093 51.1057 15.8473 50.7697 15.25C50.4431 14.6433 50.2797 13.9433 50.2797 13.15C50.2797 12.366 50.4477 11.6753 50.7837 11.078C51.1291 10.4713 51.5957 10.0093 52.1837 9.692C52.7717 9.36533 53.4297 9.202 54.1577 9.202C54.8857 9.202 55.5437 9.36533 56.1317 9.692C56.7197 10.0093 57.1817 10.4667 57.5177 11.064C57.8631 11.6613 58.0357 12.3567 58.0357 13.15C58.0357 13.9433 57.8584 14.6433 57.5037 15.25C57.1584 15.8473 56.6871 16.3093 56.0897 16.636C55.4924 16.9627 54.8297 17.126 54.1017 17.126ZM54.1017 16.006C54.5591 16.006 54.9884 15.8987 55.3897 15.684C55.7911 15.4693 56.1131 15.1473 56.3557 14.718C56.6077 14.2887 56.7337 13.766 56.7337 13.15C56.7337 12.534 56.6124 12.0113 56.3697 11.582C56.1271 11.1527 55.8097 10.8353 55.4177 10.63C55.0257 10.4153 54.6011 10.308 54.1437 10.308C53.6771 10.308 53.2477 10.4153 52.8557 10.63C52.4731 10.8353 52.1651 11.1527 51.9317 11.582C51.6984 12.0113 51.5817 12.534 51.5817 13.15C51.5817 13.7753 51.6937 14.3027 51.9177 14.732C52.1511 15.1613 52.4591 15.4833 52.8417 15.698C53.2244 15.9033 53.6444 16.006 54.1017 16.006ZM69.9672 10.098C69.9672 10.91 69.6872 11.5867 69.1272 12.128C68.5766 12.66 67.7319 12.926 66.5932 12.926H64.7172V17H63.4432V7.242H66.5932C67.6946 7.242 68.5299 7.508 69.0992 8.04C69.6779 8.572 69.9672 9.258 69.9672 10.098ZM66.5932 11.876C67.3026 11.876 67.8252 11.722 68.1612 11.414C68.4972 11.106 68.6652 10.6673 68.6652 10.098C68.6652 8.894 67.9746 8.292 66.5932 8.292H64.7172V11.876H66.5932ZM71.0747 13.136C71.0747 12.352 71.2333 11.666 71.5507 11.078C71.868 10.4807 72.302 10.0187 72.8527 9.692C73.4127 9.36533 74.0333 9.202 74.7147 9.202C75.3867 9.202 75.97 9.34667 76.4647 9.636C76.9593 9.92533 77.328 10.2893 77.5707 10.728V9.328H78.8587V17H77.5707V15.572C77.3187 16.02 76.9407 16.3933 76.4367 16.692C75.942 16.9813 75.3633 17.126 74.7007 17.126C74.0193 17.126 73.4033 16.958 72.8527 16.622C72.302 16.286 71.868 15.8147 71.5507 15.208C71.2333 14.6013 71.0747 13.9107 71.0747 13.136ZM77.5707 13.15C77.5707 12.5713 77.454 12.0673 77.2207 11.638C76.9873 11.2087 76.67 10.882 76.2687 10.658C75.8767 10.4247 75.4427 10.308 74.9667 10.308C74.4907 10.308 74.0567 10.42 73.6647 10.644C73.2727 10.868 72.96 11.1947 72.7267 11.624C72.4933 12.0533 72.3767 12.5573 72.3767 13.136C72.3767 13.724 72.4933 14.2373 72.7267 14.676C72.96 15.1053 73.2727 15.4367 73.6647 15.67C74.0567 15.894 74.4907 16.006 74.9667 16.006C75.4427 16.006 75.8767 15.894 76.2687 15.67C76.67 15.4367 76.9873 15.1053 77.2207 14.676C77.454 14.2373 77.5707 13.7287 77.5707 13.15ZM87.8156 9.328V17H86.5416V15.866C86.2989 16.258 85.9583 16.566 85.5196 16.79C85.0903 17.0047 84.6143 17.112 84.0916 17.112C83.4943 17.112 82.9576 16.9907 82.4816 16.748C82.0056 16.496 81.6276 16.1227 81.3476 15.628C81.0769 15.1333 80.9416 14.5313 80.9416 13.822V9.328H82.2016V13.654C82.2016 14.41 82.3929 14.9933 82.7756 15.404C83.1583 15.8053 83.6809 16.006 84.3436 16.006C85.0249 16.006 85.5616 15.796 85.9536 15.376C86.3456 14.956 86.5416 14.3447 86.5416 13.542V9.328H87.8156ZM91.2407 6.64V17H89.9667V6.64H91.2407ZM96.758 17.126C96.0393 17.126 95.386 16.9627 94.798 16.636C94.2193 16.3093 93.762 15.8473 93.426 15.25C93.0993 14.6433 92.936 13.9433 92.936 13.15C92.936 12.366 93.104 11.6753 93.44 11.078C93.7853 10.4713 94.252 10.0093 94.84 9.692C95.428 9.36533 96.086 9.202 96.814 9.202C97.542 9.202 98.2 9.36533 98.788 9.692C99.376 10.0093 99.838 10.4667 100.174 11.064C100.519 11.6613 100.692 12.3567 100.692 13.15C100.692 13.9433 100.515 14.6433 100.16 15.25C99.8147 15.8473 99.3433 16.3093 98.746 16.636C98.1487 16.9627 97.486 17.126 96.758 17.126ZM96.758 16.006C97.2153 16.006 97.6447 15.8987 98.046 15.684C98.4473 15.4693 98.7693 15.1473 99.012 14.718C99.264 14.2887 99.39 13.766 99.39 13.15C99.39 12.534 99.2687 12.0113 99.026 11.582C98.7833 11.1527 98.466 10.8353 98.074 10.63C97.682 10.4153 97.2573 10.308 96.8 10.308C96.3333 10.308 95.904 10.4153 95.512 10.63C95.1293 10.8353 94.8213 11.1527 94.588 11.582C94.3547 12.0113 94.238 12.534 94.238 13.15C94.238 13.7753 94.35 14.3027 94.574 14.732C94.8073 15.1613 95.1153 15.4833 95.498 15.698C95.8807 15.9033 96.3007 16.006 96.758 16.006ZM103.683 15.236L102.115 19.002H101.261L102.283 15.236H103.683ZM113.761 11.974C114.116 12.03 114.438 12.1747 114.727 12.408C115.026 12.6413 115.259 12.9307 115.427 13.276C115.604 13.6213 115.693 13.99 115.693 14.382C115.693 14.8767 115.567 15.3247 115.315 15.726C115.063 16.118 114.694 16.4307 114.209 16.664C113.733 16.888 113.168 17 112.515 17H108.875V7.242H112.375C113.038 7.242 113.602 7.354 114.069 7.578C114.536 7.79267 114.886 8.08667 115.119 8.46C115.352 8.83333 115.469 9.25333 115.469 9.72C115.469 10.2987 115.31 10.7793 114.993 11.162C114.685 11.5353 114.274 11.806 113.761 11.974ZM110.149 11.456H112.291C112.888 11.456 113.35 11.316 113.677 11.036C114.004 10.756 114.167 10.3687 114.167 9.874C114.167 9.37933 114.004 8.992 113.677 8.712C113.35 8.432 112.879 8.292 112.263 8.292H110.149V11.456ZM112.403 15.95C113.038 15.95 113.532 15.8007 113.887 15.502C114.242 15.2033 114.419 14.788 114.419 14.256C114.419 13.7147 114.232 13.29 113.859 12.982C113.486 12.6647 112.986 12.506 112.361 12.506H110.149V15.95H112.403ZM118.735 10.574C118.959 10.1353 119.276 9.79467 119.687 9.552C120.107 9.30933 120.615 9.188 121.213 9.188V10.504H120.877C119.449 10.504 118.735 11.2787 118.735 12.828V17H117.461V9.328H118.735V10.574ZM122.207 13.136C122.207 12.352 122.366 11.666 122.683 11.078C123.001 10.4807 123.435 10.0187 123.985 9.692C124.545 9.36533 125.166 9.202 125.847 9.202C126.519 9.202 127.103 9.34667 127.597 9.636C128.092 9.92533 128.461 10.2893 128.703 10.728V9.328H129.991V17H128.703V15.572C128.451 16.02 128.073 16.3933 127.569 16.692C127.075 16.9813 126.496 17.126 125.833 17.126C125.152 17.126 124.536 16.958 123.985 16.622C123.435 16.286 123.001 15.8147 122.683 15.208C122.366 14.6013 122.207 13.9107 122.207 13.136ZM128.703 13.15C128.703 12.5713 128.587 12.0673 128.353 11.638C128.12 11.2087 127.803 10.882 127.401 10.658C127.009 10.4247 126.575 10.308 126.099 10.308C125.623 10.308 125.189 10.42 124.797 10.644C124.405 10.868 124.093 11.1947 123.859 11.624C123.626 12.0533 123.509 12.5573 123.509 13.136C123.509 13.724 123.626 14.2373 123.859 14.676C124.093 15.1053 124.405 15.4367 124.797 15.67C125.189 15.894 125.623 16.006 126.099 16.006C126.575 16.006 127.009 15.894 127.401 15.67C127.803 15.4367 128.12 15.1053 128.353 14.676C128.587 14.2373 128.703 13.7287 128.703 13.15ZM133.096 15.95H136.862V17H131.64V15.95L135.364 10.364H131.668V9.328H136.834V10.364L133.096 15.95ZM139.174 8.082C138.931 8.082 138.726 7.998 138.558 7.83C138.39 7.662 138.306 7.45667 138.306 7.214C138.306 6.97133 138.39 6.766 138.558 6.598C138.726 6.43 138.931 6.346 139.174 6.346C139.407 6.346 139.603 6.43 139.762 6.598C139.93 6.766 140.014 6.97133 140.014 7.214C140.014 7.45667 139.93 7.662 139.762 7.83C139.603 7.998 139.407 8.082 139.174 8.082ZM139.79 9.328V17H138.516V9.328H139.79ZM143.235 6.64V17H141.961V6.64H143.235Z" fill="#6C6C6C"/>
</svg>
